<svg xmlns="http://www.w3.org/2000/svg" viewBox="0 0 598.23 65.85"><defs><style>.cls-1{fill:#0081cc;}.cls-2{fill:#f39700;}.cls-3{fill:#d0121b;}.cls-4{fill:#46b035;}</style></defs><g id="Layer_2" data-name="Layer 2"><g id="レイヤー_1" data-name="レイヤー 1"><rect class="cls-1" x="109.83" y="12.83" width="4.07" height="40.55"/><rect class="cls-1" x="130.01" y="12.83" width="4.07" height="40.55"/><rect class="cls-1" x="238.61" y="12.83" width="4.07" height="8.58"/><polygon class="cls-1" points="242.68 53.33 238.62 53.33 238.62 33.38 242.68 31.29 242.68 53.33"/><rect class="cls-1" x="257.62" y="12.67" width="4.07" height="39.34"/><rect class="cls-1" x="514.11" y="20.2" width="4.99" height="19.76"/><rect class="cls-1" x="547.53" y="20.2" width="4.96" height="19.76"/><rect class="cls-1" x="530.4" y="12.17" width="5.4" height="41.13"/><rect class="cls-1" x="558.26" y="38.19" width="4.56" height="14.34"/><rect class="cls-1" x="574.22" y="38.19" width="4.62" height="14.34"/><rect class="cls-1" x="582.06" y="13.29" width="4.55" height="40.16"/><rect class="cls-1" x="566.19" y="12.17" width="4.98" height="5.46"/><rect class="cls-1" x="156.47" y="30.76" width="4.07" height="17.9"/><rect class="cls-1" x="103.45" y="21.11" width="15.73" height="2.66"/><rect class="cls-1" x="122.71" y="19.43" width="20.52" height="3.08"/><rect class="cls-1" x="146.89" y="19.43" width="37.78" height="3.08"/><rect class="cls-1" x="514.11" y="19.32" width="38.38" height="3.13"/><rect class="cls-1" x="557.64" y="16.12" width="21.86" height="3.13"/><rect class="cls-1" x="584.36" y="13.29" width="12.89" height="3.17"/><rect class="cls-1" x="556.56" y="29.74" width="23.86" height="3.12"/><rect class="cls-1" x="558.26" y="36.19" width="20.58" height="3.13"/><rect class="cls-1" x="558.26" y="50.7" width="20.58" height="2.71"/><rect class="cls-1" x="514.11" y="37.89" width="38.38" height="3.13"/><rect class="cls-1" x="197.27" y="24.87" width="22.95" height="3.08"/><rect class="cls-1" x="248.57" y="24.45" width="22.96" height="3.08"/><path class="cls-1" d="M243.75,22.74H231.47V19.66h17.07c-.23.72-2.74,16.23-16.65,20.67V37.26C234.17,36.8,241.24,32.13,243.75,22.74Z"/><rect class="cls-1" x="246.52" y="50.27" width="26.15" height="3.08"/><rect class="cls-1" x="189.06" y="35.05" width="39.14" height="3.08"/><rect class="cls-1" x="178.65" y="13.96" width="5.93" height="2.63"/><rect class="cls-1" x="120.32" y="30.53" width="24.06" height="3.08"/><rect class="cls-1" x="147.84" y="30.53" width="20.11" height="3.08"/><path class="cls-1" d="M109.91,23.5c-.19,3.82-3.14,14.72-6.31,19.3v2.75c2.81-2.48,7-11.33,8.25-17.11Z"/><path class="cls-1" d="M131.12,28.75c.34,5-6.5,18.77-10.3,22.22v2.75c2.5-2,11.13-11.94,12.35-17.72Z"/><path class="cls-1" d="M132.94,28.75c-.34,5,6.5,18.77,10.3,22.22v2.75c-2.51-2-11.13-11.94-12.35-17.72Z"/><path class="cls-1" d="M113.4,23.73c.46,1,1.83,8.43,5.48,12.76v2.74c-1.37-1.44-5.55-5.24-6.62-8.43Z"/><path class="cls-1" d="M123.13,14.23H127c-.23,1.25-.35,11.62-6.74,14.59V25C121.65,23.46,123,19.25,123.13,14.23Z"/><path class="cls-1" d="M169.2,12.86h4.56c0,1.6-1.1,37.25,11.17,38.66v2C181.74,53.09,170.34,55.05,169.2,12.86Z"/><path class="cls-1" d="M147.67,48.85c2.51-.38,14.61-.57,22.06-2.92v2.43a164.53,164.53,0,0,1-22.06,3.69Z"/><path class="cls-1" d="M190,50c6.25-.07,21.91-.23,32.94-2.54l0,2.55c-4.95,1.32-27.22,3.11-32.9,3.19Z"/><path class="cls-1" d="M208.71,15.33c5,7.6,19.15,13.07,20.22,13.23V25.7c-9.28-2.88-17.49-12.31-17.79-13.07h-4.87c-.3.76-8.51,10.19-17.78,13.07v2.86C189.55,28.4,203.69,22.93,208.71,15.33Z"/><path class="cls-1" d="M216.88,41.17h2.77c1.45,1.71,7.07,8.4,8.44,12.13h-4C223.11,49.88,218.47,42.81,216.88,41.17Z"/><path class="cls-1" d="M201.25,36.38A42.4,42.4,0,0,1,193,50l1.48,1.53c1.91-1.09,9.48-8.72,12.3-15.61Z"/><path class="cls-1" d="M243.18,30.42A17.44,17.44,0,0,0,248,36.74v3.37c-2.16-.46-6.15-4.22-7.06-5.93Z"/><path class="cls-1" d="M282.41,12.78h5.75V48c6.35-1.15,16.54-4.25,23.95-12.34v2.68c-6.16,9.9-24,14.41-29.7,15.17Z"/><polygon class="cls-1" points="408.59 53.4 408.59 35.59 413.2 34.53 413.2 53.4 408.59 53.4"/><polygon class="cls-1" points="325.4 22.82 326.01 17.8 314.8 13.09 314.8 17.14 325.4 22.82"/><path class="cls-1" d="M313.77,48v5.47c3.88-.23,30.67-2.85,38.65-30h-2.31C349.43,24.49,341.71,45.93,313.77,48Z"/><rect class="cls-1" x="360.98" y="12.86" width="31.93" height="3.54"/><rect class="cls-1" x="358.7" y="24.6" width="37.16" height="3.53"/><path class="cls-1" d="M381,26.47c0,.68,1.68,23.71-20.52,27.06V51.35c3.56-.81,17.25-6,15.89-24.73l3.95-.88"/><path class="cls-1" d="M418.67,23.57c-2.74,5.25-8.21,13.8-23.26,17.94v1.68c8.67-.45,22.8-7.53,27.59-19.62Z"/><polygon class="cls-1" points="436.9 34.04 433.36 34.04 428.92 24.34 433.98 24.34 436.9 34.04"/><polygon class="cls-1" points="445.17 34.04 441.62 34.04 437.18 24.34 442.24 24.34 445.17 34.04"/><path class="cls-1" d="M455.31,23.88h4.78c-.9,3.49-3.65,27.41-26.14,29.69V51.36C440.92,49.86,453.48,44.56,455.31,23.88Z"/><path class="cls-1" d="M473.17,12.78h28c-.91,5.48-3,33.45-35.88,40.75V51.31c7.42-1.52,25.34-12.38,29-34.91H477.73c-.6,3.53-4.25,9.61-11.71,12.35V24.8A20.54,20.54,0,0,0,473.17,12.78Z"/><path class="cls-1" d="M560.77,18.86c.47,2.09,1.7,8.41,1.4,11.81s.15-.3.15-.3h4c.16-1.09-.62-9.58-1.55-11.82Z"/><path class="cls-1" d="M573.28,18.63A60.89,60.89,0,0,0,571,30.05l4,.08a72.93,72.93,0,0,1,2.25-11h-4.17"/><path class="cls-1" d="M592.58,16.47c-.31,1.38-3,10.34-4.36,12.81.61.46,6.13,4.33,6.13,10.19,0,5.53-3.77,6.49-6.56,6.49v2c3.25,0,9.58.93,10.35-6s-3.74-11.31-6.67-13.47c.92-.93,5.78-12,5.78-12Z"/><path class="cls-2" d="M89.15,7.56c0,4.18-20,7.57-44.57,7.57S0,11.74,0,7.56,20,0,44.58,0,89.15,3.39,89.15,7.56Z"/><path class="cls-3" d="M89.32,24.43c0,4.18-20,7.56-44.57,7.56S.17,28.61.17,24.43s20-7.56,44.58-7.56S89.32,20.25,89.32,24.43Z"/><path class="cls-1" d="M89.32,58.28c0,4.18-20,7.57-44.58,7.57S.17,62.46.17,58.28s20-7.56,44.57-7.56S89.32,54.11,89.32,58.28Z"/><path class="cls-4" d="M89.43,41.31c0,4.17-20,7.56-44.58,7.56S.28,45.48.28,41.31s20-7.57,44.57-7.57S89.43,37.13,89.43,41.31Z"/></g></g></svg>