<svg xmlns="http://www.w3.org/2000/svg" viewBox="0 0 391.42 445.62"><defs><style>.cls-1{fill:#f08300;}.cls-2{fill:#910000;}.cls-3{fill:#fff;}.cls-4{fill:#fbd8b5;}.cls-5{fill:#3171b9;}.cls-6{fill:#891d21;}.cls-7{fill:#f4aa7f;}.cls-8{fill:#efb36c;}.cls-9{fill:#00afec;}.cls-10{fill:#f39800;}.cls-11{fill:#e60013;}.cls-12{fill:#45b035;}</style></defs><g id="Layer_2" data-name="Layer 2"><g id="レイヤー_2" data-name="レイヤー 2"><path class="cls-1" d="M232.73,341.78s30.47,22.69,58.35.65,81-31.12,94-1.3-88.17,94.65-166,22.69Z"/><path class="cls-2" d="M299.39,401.74c-30.7,0-59.68-11.8-83.8-34.11a5.19,5.19,0,0,1-.89-6.53l13.62-22a5.19,5.19,0,0,1,7.51-1.44c.11.08,12.73,9.25,28.23,9.25a37.64,37.64,0,0,0,23.8-8.51C304.31,325.36,328.3,317,349,317c20.13,0,34.64,7.86,40.84,22.11,3,7,1.68,15.2-3.92,23.74C373.24,382.15,339.44,401.74,299.39,401.74Zm-73.58-38.88c21.51,18.66,46.86,28.5,73.58,28.5,36,0,67-17.64,77.86-34.25,2.05-3.12,5.17-9.09,3.08-13.91-5.71-13.12-20.19-15.88-31.33-15.88-18.22,0-40.21,7.71-54.71,19.18a47.78,47.78,0,0,1-30.23,10.75c-12.84,0-23.74-4.94-29.67-8.29Z"/><path class="cls-2" d="M316.07,328.6c15.43,21,17.66,46.12,16.93,63a110,110,0,0,0,30.85-14.49c1.66-31.69-9.52-48-16.51-55A96.31,96.31,0,0,0,316.07,328.6Z"/><path class="cls-2" d="M294.38,340c-1.14.8-2.24,1.61-3.3,2.45a43.23,43.23,0,0,1-20.31,9.1c4.52,15.73,2.64,30.64-.18,41.28a112.83,112.83,0,0,0,28.83,3.73C305.12,372.91,299.54,352.32,294.38,340Z"/><path class="cls-1" d="M158.2,389.06l4.07,23.39a89.5,89.5,0,0,0-32.55,6.1c-16.27,6.61-11.18,22.38,9.16,21.87s48.82-9.15,42.71-20.34L174,388.55"/><path class="cls-2" d="M137.88,445.62c-14.66,0-21.41-7.26-22.74-13.61-1.16-5.58,1.45-13.72,12.63-18.26a93.8,93.8,0,0,1,28.36-6.31l-3-17.49a5.19,5.19,0,0,1,10.22-1.78l4.07,23.39a5.17,5.17,0,0,1-1.19,4.29,5.11,5.11,0,0,1-4.08,1.78,85.07,85.07,0,0,0-30.43,5.72c-4.27,1.74-6.84,4.37-6.38,6.54s4.49,5.54,13.45,5.34c17.78-.44,35.49-6.67,38.29-11.53a.89.89,0,0,0,0-1.14,5.23,5.23,0,0,1-.49-1.26l-7.63-31.53A5.19,5.19,0,0,1,179,387.33l7.48,30.95a11.1,11.1,0,0,1-.46,10.6c-6.27,10.88-31.27,16.33-47,16.72Z"/><path class="cls-1" d="M215.48,389.06l-4.07,23.39a89.5,89.5,0,0,1,32.55,6.1c16.27,6.61,11.19,22.38-9.16,21.87s-48.81-9.15-42.71-20.34l7.63-31.53"/><path class="cls-2" d="M235.81,445.62l-1.14,0c-15.75-.39-40.74-5.84-47-16.72a11.1,11.1,0,0,1-.46-10.6l7.49-30.95a5.19,5.19,0,0,1,10.08,2.44l-7.63,31.53a5.23,5.23,0,0,1-.49,1.26.89.89,0,0,0,0,1.14c2.8,4.86,20.51,11.09,38.29,11.53,8.93.2,13-3.15,13.45-5.33s-2.11-4.81-6.38-6.55a84.62,84.62,0,0,0-30.43-5.71,5.36,5.36,0,0,1-4.07-1.79,5.22,5.22,0,0,1-1.2-4.29l4.07-23.39A5.19,5.19,0,1,1,220.59,390l-3,17.49a93.8,93.8,0,0,1,28.36,6.31c11.18,4.54,13.79,12.68,12.63,18.26C257.22,438.36,250.46,445.62,235.81,445.62Z"/><path class="cls-1" d="M128.17,292.64s-23.74,19.43-41.72,23c0,0-15.83-1.44-26.61,9.35-14.39,14.39,1.43,24.46,23,12.95,0,0-13.66,8.63-6.47,13.67s21.58,4.31,23.74-18c0,0,27.34-11.51,33.09-24.46"/><path class="cls-2" d="M84.43,359.38a19.2,19.2,0,0,1-11-3.51,9.35,9.35,0,0,1-4.31-7.95c-7.73.93-14.22-1-17.7-5.66-1.62-2.17-6-10.11,4.77-20.92,11-11,26.13-11.06,29.9-10.9,16.43-3.63,38.6-21.63,38.82-21.82a5.19,5.19,0,0,1,6.57,8c-1,.83-25,20.29-44,24.09a5,5,0,0,1-1.49.08c-.11,0-13.61-1-22.48,7.86-3.49,3.49-4.54,6.37-3.77,7.41,1.5,2,9.33,3.35,20.68-2.71a5.19,5.19,0,0,1,5.21,9,22.65,22.65,0,0,0-5.85,5.28,8.55,8.55,0,0,0,7.92.69c3.92-1.81,6.5-7.19,7.27-15.17a5.17,5.17,0,0,1,3.15-4.28c9.84-4.15,26.79-13.74,30.36-21.78a5.19,5.19,0,1,1,9.48,4.21c-5.45,12.25-25.37,22.38-33,25.91-2,12.9-8,18.28-12.87,20.53A18.22,18.22,0,0,1,84.43,359.38Z"/><path class="cls-1" d="M247.35,292.64s23.74,19.43,41.72,23c0,0,15.83-1.44,26.62,9.35,14.39,14.39-1.44,24.46-23,12.95,0,0,13.67,8.63,6.48,13.67s-21.58,4.31-23.74-18c0,0-27.34-11.51-33.09-24.46"/><path class="cls-2" d="M291.09,359.38a18.11,18.11,0,0,1-7.6-1.66c-4.86-2.24-10.87-7.63-12.87-20.52-7.67-3.53-27.6-13.66-33-25.91a5.19,5.19,0,1,1,9.48-4.21c3.57,8,20.52,17.63,30.36,21.78a5.19,5.19,0,0,1,3.15,4.28c.77,8,3.35,13.36,7.27,15.17a8.58,8.58,0,0,0,7.92-.67,22.31,22.31,0,0,0-5.87-5.3,5.19,5.19,0,0,1,5.22-9c11.35,6.06,19.19,4.72,20.68,2.71.77-1-.28-3.92-3.77-7.41-9-9-22.35-7.87-22.48-7.86a4.92,4.92,0,0,1-1.48-.08c-19-3.8-43-23.26-44-24.09a5.19,5.19,0,0,1,6.57-8c.22.19,22.39,18.19,38.82,21.82,3.78-.16,18.92-.08,29.9,10.9,10.8,10.81,6.38,18.75,4.77,20.92-3.48,4.7-10,6.59-17.71,5.66a9.34,9.34,0,0,1-4.3,7.95A19.25,19.25,0,0,1,291.09,359.38Z"/><path class="cls-1" d="M249,332.87c0,43.68-27.78,61.41-62.05,61.41s-62-17.73-62-61.41,27.78-79.09,62-79.09S249,289.19,249,332.87Z"/><path class="cls-2" d="M187,400.76c-42.91,0-68.53-25.38-68.53-67.89,0-47.19,30.75-85.58,68.53-85.58s68.53,38.39,68.53,85.58C255.5,375.38,229.88,400.76,187,400.76Zm0-140.5c-30.63,0-55.56,32.57-55.56,72.61,0,47.79,34.81,54.93,55.56,54.93s55.57-7.14,55.57-54.93C242.54,292.83,217.61,260.26,187,260.26Z"/><ellipse class="cls-3" cx="187.03" cy="322.02" rx="41.39" ry="48.84"/><path class="cls-2" d="M187,375.17c-27.76,0-45.7-20.86-45.7-53.15,0-29.3,20.5-53.15,45.7-53.15s45.71,23.85,45.71,53.15C232.74,354.31,214.8,375.17,187,375.17Zm0-97.67c-20.44,0-37.07,20-37.07,44.52,0,21.53,9.74,44.53,37.07,44.53s37.08-23,37.08-44.53C224.11,297.47,207.48,277.5,187,277.5Z"/><path class="cls-1" d="M118,51.83A45.34,45.34,0,1,1,72.63,6.48,45.34,45.34,0,0,1,118,51.83Z"/><path class="cls-2" d="M72.63,103.65a51.83,51.83,0,1,1,51.83-51.82A51.88,51.88,0,0,1,72.63,103.65Zm0-90.68a38.86,38.86,0,1,0,38.86,38.86A38.9,38.9,0,0,0,72.63,13Z"/><path class="cls-1" d="M341.73,51.83A45.34,45.34,0,1,1,296.39,6.48,45.34,45.34,0,0,1,341.73,51.83Z"/><path class="cls-2" d="M296.39,103.65a51.83,51.83,0,1,1,51.82-51.82A51.88,51.88,0,0,1,296.39,103.65Zm0-90.68a38.86,38.86,0,1,0,38.86,38.86A38.9,38.9,0,0,0,296.39,13Z"/><path class="cls-1" d="M67.78,251.05C48.09,249,22.09,215.2,22.09,215.2l16.16-10.54-23.9-9.84s26.74-16.17,26.74-43.28c0-74.59,65.31-135,145.88-135S332.86,77,332.86,151.54c0,24.29,33,50.31,33,50.31l-26,7.73,14.58,10s-29.34,35-52.54,31.49"/><path class="cls-2" d="M305.21,257.78a28.45,28.45,0,0,1-4.32-.32l1.94-12.82c13.46,2.05,31.77-13.54,41.78-23.92l-19.67-13.48,27.91-8.3c-10.51-10.23-26.47-28.82-26.47-47.4C326.38,80.65,263.84,23,187,23S47.57,80.65,47.57,151.54c0,19.39-11.64,33.6-20.4,41.54l24.95,10.27L31.67,216.69c10.24,11.9,26.2,26.78,36.8,27.92L67.09,257.5c-21.81-2.34-47.3-34.66-50.14-38.34l-4.28-5.56L24.39,206,0,195.92l11-6.65c.22-.14,23.6-14.71,23.6-37.73C34.6,73.5,103,10,187,10S339.34,73.5,339.34,151.54c0,17.29,22,38.51,30.51,45.22l9.79,7.74-24.93,7.42,9.25,6.33-4.59,5.47C356.3,227.38,330.07,257.78,305.21,257.78Z"/><path class="cls-4" d="M295.5,189.77c14.66-17.64,9.28-91.86-50.05-99-40.41-4.86-52.67,45.42-57.29,55.53-4.61-10.11-19-62.07-57.28-55.53-58.85,10.06-64.71,81.35-50,99,0,0-32.65,14.7-21.14,53.92,10.91,37.13,87.19,50.51,128.47,48.5,41.29,2,117.57-11.37,128.48-48.5C328.15,204.47,295.5,189.77,295.5,189.77Z"/><path class="cls-2" d="M196.52,298.87h0c-2.88,0-5.68-.06-8.35-.19-2.66.13-5.47.19-8.35.19-44.49,0-114.84-14.21-126.34-53.36-8.83-30.08,5.82-49.38,18.44-58.08-6.06-13.61-5.79-35.94,1.3-55.13C83,106,103,89,129.78,84.39a45.07,45.07,0,0,1,7.61-.66c27.83,0,42.76,26.4,50.66,44.85,7.54-18.26,22.24-44.62,52-44.62a51.82,51.82,0,0,1,6.16.38c26.07,3.13,46,18.84,56.1,44.24,8,20.09,8.57,44.4,2.1,58.86,12.62,8.69,27.27,28,18.44,58.07C311.36,284.66,241,298.87,196.52,298.87Zm-8.36-13.17.32,0c2.54.12,5.25.18,8,.18,41.93,0,105-13.66,113.91-44,9.81-33.41-16.46-45.67-17.59-46.18l-7.77-3.49,5.45-6.56c5.81-7,8.53-30.25-.23-52.26-5.86-14.7-18.52-32.9-45.61-36.16a40.42,40.42,0,0,0-4.61-.28c-26.77,0-38.15,31.05-43.62,46-.94,2.57-1.69,4.59-2.38,6.11l-5.89,12.92L182.27,149c-.64-1.38-1.35-3.24-2.25-5.58-5.36-14-17.91-46.73-42.63-46.73a31.71,31.71,0,0,0-5.42.48c-29.67,5.07-41.93,27-46.59,39.63-8,21.52-4.8,42.53.43,48.83l5.45,6.56-7.77,3.49c-1.09.51-27.3,13.07-17.58,46.18,8.92,30.38,72,44,113.9,44,2.79,0,5.49-.06,8-.18Z"/><path class="cls-5" d="M124.51,31.7a15.42,15.42,0,1,1-15.42-15.41A15.42,15.42,0,0,1,124.51,31.7Z"/><path class="cls-6" d="M109.09,51A19.31,19.31,0,1,1,128.4,31.7,19.33,19.33,0,0,1,109.09,51Zm0-30.83A11.53,11.53,0,1,0,120.62,31.7,11.54,11.54,0,0,0,109.09,20.18Z"/><path class="cls-7" d="M105.51,213.77c0,4.33-6,7.83-13.32,7.83s-13.33-3.5-13.33-7.83,6-7.83,13.33-7.83S105.51,209.45,105.51,213.77Z"/><path class="cls-7" d="M295.18,213.77c0,4.33-6,7.83-13.32,7.83s-13.33-3.5-13.33-7.83,6-7.83,13.33-7.83S295.18,209.45,295.18,213.77Z"/><path class="cls-2" d="M144.55,183.41c0,16-8.22,28.92-18.36,28.92s-18.36-13-18.36-28.92,8.22-28.92,18.36-28.92S144.55,167.44,144.55,183.41Z"/><path class="cls-3" d="M132.32,174.68c0,5.7-2.74,10.32-6.13,10.32s-6.13-4.62-6.13-10.32,2.74-10.32,6.13-10.32S132.32,169,132.32,174.68Z"/><path class="cls-2" d="M111.36,173.14s-8.73.51-15.92-11.3c0,0-3.08,18.48,14.38,23.1"/><path class="cls-2" d="M229.73,183.41c0,16,8.22,28.92,18.36,28.92s18.36-13,18.36-28.92-8.22-28.92-18.36-28.92S229.73,167.44,229.73,183.41Z"/><path class="cls-3" d="M242,174.68c0,5.7,2.75,10.32,6.14,10.32s6.13-4.62,6.13-10.32-2.74-10.32-6.13-10.32S242,169,242,174.68Z"/><path class="cls-2" d="M262.91,173.14s8.73.51,15.92-11.3c0,0,3.08,18.48-14.37,23.1"/><path class="cls-8" d="M187.11,182.19c15.45,0,28.71,5.92,34.39,14.37-1.81-11.86-16.51-21.11-34.39-21.11s-32.56,9.25-34.38,21.11C158.41,188.11,171.66,182.19,187.11,182.19Z"/><path class="cls-2" d="M211.28,204c0,8.26-11,15-24.52,15s-24.52-6.7-24.52-15,11-14.95,24.52-14.95S211.28,195.79,211.28,204Z"/><path class="cls-3" d="M186.76,196.85c8.74,0,16.16,2.52,19,6a4.34,4.34,0,0,0,.12-.95c0-4.77-8.54-8.64-19.08-8.64s-19.08,3.87-19.08,8.64a4.34,4.34,0,0,0,.12.95C170.6,199.37,178,196.85,186.76,196.85Z"/><path class="cls-2" d="M187.24,254.32c-19.12,0-33.1-4.56-41.56-13.56-8.34-8.85-8-18.53-7.94-19.61a6.48,6.48,0,0,1,12.95.69,15.31,15.31,0,0,0,4.65,10.27c5.89,6,16.92,9.24,31.9,9.24,37.7,0,38.13-20.4,38.13-20.6a6.49,6.49,0,1,1,13,0C238.34,221.08,237.76,254.32,187.24,254.32Z"/><path class="cls-2" d="M47.65,48.65S50.87,18,91.16,28.77L79.88,39.52S63.22,29.85,47.65,48.65Z"/><path class="cls-2" d="M320.33,48.65S317.1,18,276.81,28.77l11.28,10.75S304.75,29.85,320.33,48.65Z"/><path class="cls-2" d="M39.05,172.28l17.19-5.9L45.5,182l27.39-10.75,5.91,17.73s-32.23,26.32-22.56,53.72l-29-26.86,9.13-10.74-16.65-9.67Z"/><path class="cls-2" d="M339.9,172.28l-17.2-5.9L333.45,182l-27.4-10.75-5.91,17.73s32.24,26.32,22.56,53.72l29-26.86-9.14-10.74,16.66-9.67Z"/><path class="cls-9" d="M102.62,48A15.42,15.42,0,1,1,87.21,32.56,15.42,15.42,0,0,1,102.62,48Z"/><path class="cls-6" d="M87.21,67.29A19.31,19.31,0,1,1,106.51,48,19.34,19.34,0,0,1,87.21,67.29Zm0-30.84A11.53,11.53,0,1,0,98.73,48,11.54,11.54,0,0,0,87.21,36.45Z"/><path class="cls-5" d="M276.52,34.16A15.42,15.42,0,1,1,261.1,18.75,15.42,15.42,0,0,1,276.52,34.16Z"/><path class="cls-6" d="M261.1,53.47a19.31,19.31,0,1,1,19.31-19.31A19.33,19.33,0,0,1,261.1,53.47Zm0-30.83a11.53,11.53,0,1,0,11.53,11.52A11.54,11.54,0,0,0,261.1,22.64Z"/><path class="cls-9" d="M297.87,51.45A15.42,15.42,0,1,1,282.45,36,15.42,15.42,0,0,1,297.87,51.45Z"/><path class="cls-6" d="M282.45,70.76a19.31,19.31,0,1,1,19.31-19.31A19.33,19.33,0,0,1,282.45,70.76Zm0-30.83A11.53,11.53,0,1,0,294,51.45,11.54,11.54,0,0,0,282.45,39.93Z"/><path class="cls-10" d="M210,316.81c0,2.11-10.33,3.82-23.08,3.82s-23.08-1.71-23.08-3.82S174.2,313,187,313,210,314.7,210,316.81Z"/><path class="cls-11" d="M210,325.43c0,2.11-10.33,3.82-23.08,3.82s-23.08-1.71-23.08-3.82,10.33-3.82,23.08-3.82S210,323.32,210,325.43Z"/><path class="cls-12" d="M210,334c0,2.11-10.33,3.82-23.08,3.82s-23.08-1.71-23.08-3.82,10.33-3.81,23.08-3.81S210,331.93,210,334Z"/><path class="cls-5" d="M210,342.66c0,2.11-10.33,3.82-23.08,3.82s-23.08-1.71-23.08-3.82,10.33-3.82,23.08-3.82S210,340.55,210,342.66Z"/></g></g></svg>