<svg xmlns="http://www.w3.org/2000/svg" viewBox="0 0 89.43 65.85"><defs><style>.cls-1{fill:#f39700;}.cls-2{fill:#d0121b;}.cls-3{fill:#0081cc;}.cls-4{fill:#46b035;}</style></defs><g id="Layer_2" data-name="Layer 2"><g id="レイヤー_1" data-name="レイヤー 1"><path class="cls-1" d="M89.15,7.56c0,4.18-20,7.57-44.57,7.57S0,11.74,0,7.56,20,0,44.58,0,89.15,3.39,89.15,7.56Z"/><path class="cls-2" d="M89.32,24.43c0,4.18-20,7.56-44.57,7.56S.17,28.61.17,24.43s20-7.56,44.58-7.56S89.32,20.25,89.32,24.43Z"/><path class="cls-3" d="M89.32,58.28c0,4.18-20,7.57-44.58,7.57S.17,62.46.17,58.28s20-7.56,44.57-7.56S89.32,54.11,89.32,58.28Z"/><path class="cls-4" d="M89.43,41.31c0,4.17-20,7.56-44.58,7.56S.28,45.48.28,41.31s20-7.57,44.57-7.57S89.43,37.13,89.43,41.31Z"/></g></g></svg>